<?xml version="1.0"?>
<svg xmlns="http://www.w3.org/2000/svg" xmlns:xlink="http://www.w3.org/1999/xlink" viewBox="0 0 512 512" width="512" height="512"><linearGradient id="a" gradientUnits="userSpaceOnUse" x1="256" x2="256" y1="31.616" y2="489.508"><stop offset="0" stop-color="#00efd1"/><stop offset="1" stop-color="#00acea"/></linearGradient><path d="m450.527 56.744a9.831 9.831 0 0 0 -7.071-2.744 9.827 9.827 0 0 0 -7.073 2.75l-32.892 32.85a9.827 9.827 0 0 0 -2.349 3.677l-10.777 30.373-92.975 93.013-17.233-17.092a9.948 9.948 0 0 0 -3.794-2.35l-12.435-12.436 14.872-14.907a10 10 0 0 0 -.008-14.134l-.513-.512c32.569-30.993 61.85-44.762 94.042-44.523a10 10 0 0 0 4.606-18.919 169.149 169.149 0 0 0 -24.349-10.4c-48.524-16.014-100.157-12.766-139.72 8.472l-4.6-4.6a10 10 0 0 0 -14.142 0l-101.2 101.2a10 10 0 0 0 .01 14.153l11.213 11.185-19.939 19.932-11.235-11.2a10 10 0 0 0 -14.133.01l-39.039 39.04a10 10 0 0 0 0 14.145l70.538 70.483a10 10 0 0 0 14.139 0l39.043-39.043a10 10 0 0 0 -.01-14.152l-11.215-11.184 19.936-19.936 11.235 11.2a10 10 0 0 0 14.132-.01l14.855-14.854 12.589 12.589-.418.28a9.945 9.945 0 0 0 -1.5 1.235l-109.012 108.958a10 10 0 0 0 -.032 14.115l61.486 61.818a9.806 9.806 0 0 0 7.081 2.774h.02a9.831 9.831 0 0 0 7.072-2.746l109.216-109.176a9.522 9.522 0 0 0 1.216-1.429l.3-.422 99.3 99.308a50.549 50.549 0 1 0 71.489-71.484l-71.778-71.721-27.4-27.4a9.988 9.988 0 0 0 -2.629-4.593l-15.877-15.734 93.088-93.088 29.371-12.012a10.008 10.008 0 0 0 3.292-2.19l32.889-32.941a9.889 9.889 0 0 0 -.006-14.044zm-160.16 181.109 21.977 21.874.016.015 15.877 15.734-11.751 11.751-50.538-50.883-4.164-4.2 11.363-11.363zm67.891 69.547-43.2 43.161-23.209-23.21 14.64-21.8 2.857 2.684a9.791 9.791 0 0 0 7.081 2.765h.024a9.816 9.816 0 0 0 7.071-2.727l17.906-17.805zm-117.658-82.362a10 10 0 0 0 -.032 14.109l3.453 3.486-22.061 14.831-15.372-15.372 43.2-43.161 8.459 8.46zm92.742-128.415c-28.366 9.023-51.075 27.016-69.227 44.455l-36.374-36.348c30.476-14.484 68.429-17.411 105.601-8.107zm-234.992 149.247 19.936-19.936 19.791 19.822-19.936 19.936zm-.95 77.13-56.391-56.35 24.908-24.908 11.219 11.188 33.923 33.97.016.015 11.215 11.185zm73.114-73.114-11.224-11.186-33.923-33.975-.015-.016-11.215-11.183 87.048-87.048 56.4 56.349zm93.614 82.828-101.44 101.486-47.4-47.8 101.273-101.228 41.8-28.082 33.758 33.982-21.453 31.937zm172.972 53.472a30.552 30.552 0 1 1 -43.2 43.214l-64.7-64.7 43.2-43.164zm9.5-256.427-29.367 12.01a9.993 9.993 0 0 0 -3.286 2.184l-94.559 94.56-7.8-7.766 94.529-94.579a9.981 9.981 0 0 0 2.352-3.728l10.779-30.4 24.223-24.262 27.529 27.538z" fill="url(#a)"/></svg>
